Coordinates
version=1
nRows=21
nColumns=12
inDegrees=yes

Units are S.I. units (second, meters, Newtons, ...)
Angles are in degrees

endheader
time	SC_y	SC_z	SC_x	AC_y	AC_z	AC_x	GH_y	GH_z	GH_yy	EL_x	PS_y
       0.0              -51.48          3.784          53.82          47.67         -9.749          14.54         -8.179          14.39          120.8          103.7          29.52
 0.0004387              -51.48          3.788          53.81          47.67          -9.75          14.54         -8.196          14.39          120.8          103.7          29.54
 0.0008775              -51.48          3.792           53.8          47.67         -9.751          14.54         -8.214           14.4          120.7          103.7          29.56
  0.001316              -51.48          3.796           53.8          47.67         -9.753          14.53         -8.233          14.41          120.7          103.7          29.58
  0.001755              -51.48            3.8          53.79          47.67         -9.754          14.53         -8.253          14.41          120.6          103.7           29.6
  0.002194              -51.48          3.805          53.78          47.67         -9.756          14.52         -8.275          14.42          120.6          103.7          29.62
  0.002632              -51.48          3.809          53.77          47.67         -9.758          14.52         -8.298          14.43          120.5          103.7          29.65
  0.003071              -51.48          3.815          53.76          47.67          -9.76          14.51         -8.323          14.44          120.5          103.7          29.68
   0.00351              -51.48           3.82          53.75          47.67         -9.762          14.51         -8.349          14.45          120.4          103.7          29.71
  0.003949              -51.47          3.826          53.74          47.67         -9.764           14.5         -8.378          14.46          120.4          103.7          29.74
  0.004387              -51.47          3.833          53.73          47.67         -9.766           14.5         -8.408          14.47          120.3          103.7          29.77
  0.004826              -51.47           3.84          53.72          47.67         -9.769          14.49         -8.441          14.48          120.2          103.6          29.81
  0.005265              -51.47          3.847          53.71          47.67         -9.771          14.48         -8.476           14.5          120.2          103.6          29.85
  0.005704              -51.47          3.855          53.69          47.67         -9.774          14.47         -8.515          14.51          120.1          103.6          29.89
  0.006142              -51.47          3.864          53.68          47.67         -9.777          14.47         -8.556          14.52          120.0          103.6          29.93
  0.006581              -51.46          3.873          53.66          47.67         -9.781          14.46         -8.601          14.54          119.9          103.6          29.98
   0.00702              -51.46          3.883          53.65          47.67         -9.785          14.45          -8.65          14.56          119.8          103.6          30.04
  0.007459              -51.46          3.895          53.63          47.67         -9.789          14.43         -8.703          14.58          119.7          103.6           30.1
  0.007897              -51.46          3.907           53.6          47.67         -9.793          14.42         -8.761           14.6          119.5          103.6          30.16
  0.008336              -51.45           3.92          53.58          47.66         -9.798          14.41         -8.825          14.62          119.4          103.6          30.23
  0.008775              -51.45          3.935          53.56          47.66         -9.803          14.39         -8.894          14.65          119.3          103.5          30.31
